PathFileType	4	(X/Y/Z)	C:\Users\Biomechanik\SynologyDrive\AlexP\Athlete_03\Athlete_3_25_03_31\Squat_bw_03\marker_experimental.trc
DataRate	CameraRate	NumFrames	NumMarkers	Units	OrigDataRate	OrigDataStartFrame	OrigNumFrames
200.000000	200.000000	4	55	mm	200.000000	136	544
Frame#	Time	BL			BR			GLAB			RFHD			LFHD			C7			T6			SPINMOL			SPINM2			SPINM3			T12			BELTOL			BELT2			BELT3			SACROL			SACR2			SACR3			LTHOL			LTH2			LTH3			LSHAOL			LSHA2			LSHA3			LHEE			LTOE			LM5			RTHOL			RTH2			RTH3			RSHAOL			RSHA2			RSHA3			RHEE			RTOE			RM5			STRN			XIPH			LACR			LUAOL			LUA2			LUA3			LLAOL			LLA2			LLA3			LWRR			LWRU			RACR			RUAOL			RUA2			RUA3			RLAOL			RLA2			RLA3			RWRR			RWRU			
		X1	Y1	Z1	X2	Y2	Z2	X3	Y3	Z3	X4	Y4	Z4	X5	Y5	Z5	X6	Y6	Z6	X7	Y7	Z7	X8	Y8	Z8	X9	Y9	Z9	X10	Y10	Z10	X11	Y11	Z11	X12	Y12	Z12	X13	Y13	Z13	X14	Y14	Z14	X15	Y15	Z15	X16	Y16	Z16	X17	Y17	Z17	X18	Y18	Z18	X19	Y19	Z19	X20	Y20	Z20	X21	Y21	Z21	X22	Y22	Z22	X23	Y23	Z23	X24	Y24	Z24	X25	Y25	Z25	X26	Y26	Z26	X27	Y27	Z27	X28	Y28	Z28	X29	Y29	Z29	X30	Y30	Z30	X31	Y31	Z31	X32	Y32	Z32	X33	Y33	Z33	X34	Y34	Z34	X35	Y35	Z35	X36	Y36	Z36	X37	Y37	Z37	X38	Y38	Z38	X39	Y39	Z39	X40	Y40	Z40	X41	Y41	Z41	X42	Y42	Z42	X43	Y43	Z43	X44	Y44	Z44	X45	Y45	Z45	X46	Y46	Z46	X47	Y47	Z47	X48	Y48	Z48	X49	Y49	Z49	X50	Y50	Z50	X51	Y51	Z51	X52	Y52	Z52	X53	Y53	Z53	X54	Y54	Z54	X55	Y55	Z55	

137	0.68	960.710693359375	36.20566558837903	-1933.544921875	1063.181518554688	32.89103698730468	86.64899444580078	551.2882690429688	1198.446655273438	-1207.177490234375	505.1454162597656	1231.007934570312	-1144.605712890625	510.2472534179688	1225.70166015625	-1279.856079101562	287.1223754882812	1109.130615234375	-1212.967407226562	160.2808227539062	996.8906860351564	-1220.4970703125	139.5218658447266	969.7785034179689	-1241.86376953125	129.6357269287109	964.9319458007814	-1192.799682617188	103.55810546875	915.6975708007814	-1228.675537109375	75.04646301269531	859.5260009765626	-1226.48974609375	41.28061294555664	847.5023803710939	-1241.357666015625	39.4420280456543	845.2429809570314	-1190.74462890625	4.540455341339111	796.3557739257814	-1220.4560546875	-44.91361236572266	695.1577148437501	-1244.033935546875	-44.83242034912109	692.2075195312501	-1192.600341796875	-60.26201248168945	634.5830688476564	-1221.32763671875	129.4921112060547	499.7253417968751	-1512.072387695312	157.0557556152344	425.2477111816407	-1518.408447265625	174.5599060058594	468.0211486816407	-1538.9892578125	215.3498229980469	304.0227966308595	-1619.370971679688	160.2420806884766	259.659149169922	-1582.356201171875	202.7286376953125	244.9395446777345	-1605.775756835938	113.8335723876953	70.67338562011727	-1472.73046875	316.7913208007812	50.52786254882822	-1549.644775390625	238.5294036865234	25.35240173339854	-1628.447631835938	105.7129898071289	491.5379333496094	-927.6874389648438	159.6911468505859	519.4329223632812	-875.6968383789062	154.3896026611328	473.2456359863282	-893.043212890625	191.7964477539062	320.3924560546876	-813.9842529296875	199.2815093994141	241.8876495361329	-810.7997436523438	165.7150573730469	268.2131347656251	-836.6967163085938	95.03557586669922	65.44534301757818	-966.1248168945312	286.0433654785156	47.42146682739263	-875.0717163085938	199.7410736083984	38.10256195068364	-800.8272705078125	405.5137939453125	949.6345825195314	-1213.951904296875	356.1377258300781	809.9813232421876	-1209.054443359375	341.8980102539062	1062.831665039062	-1376.233276367188	242.6030120849609	985.4566650390626	-1492.376586914062	190.3721618652344	949.3234863281251	-1509.976196289062	232.1138305664062	941.2976684570314	-1540.082641601562	245.6903991699219	880.9967651367189	-1629.768310546875	319.3546447753906	852.2442016601564	-1633.966674804688	304.3262023925781	900.1887207031251	-1628.487060546875	394.3873291015625	951.9644775390626	-1621.705444335938	387.8567199707031	953.3310546875001	-1543.710327148438	334.0655517578125	1067.085205078125	-1067.388549804688	240.3773040771484	992.2892456054689	-951.3198242187499	222.4920349121094	954.4865112304688	-900.4169921874999	190.9792327880859	949.9935913085939	-941.7303466796874	259.6792602539062	911.8203125	-794.95703125	280.9818115234375	986.9937744140625	-810.0084228515624	310.608154296875	948.2684936523438	-798.3878173828124	368.5229187011719	1020.596069335938	-818.4824218749999	372.6815185546875	1010.060913085938	-895.7842407226561	
138	0.6850000000000001	960.7100830078125	36.20633316040051	-1933.545654296875	1063.181396484375	32.89073181152343	86.64917755126953	551.9945678710938	1195.16552734375	-1206.908081054688	505.8506774902344	1227.737915039062	-1144.33154296875	511.0035705566406	1222.4736328125	-1279.591186523438	287.7341003417969	1106.172119140625	-1212.778930664062	160.6929321289062	994.2266235351564	-1220.349731445312	139.8821716308594	967.1821899414064	-1241.719848632812	130.0025634765625	962.3177490234376	-1192.675903320312	103.8110198974609	913.1701660156251	-1228.557250976562	75.17633819580078	857.0782470703126	-1226.374267578125	41.34087753295898	845.1802368164064	-1241.243530273438	39.52921676635742	842.9010620117189	-1190.632080078125	4.540452480316162	794.0740966796876	-1220.3427734375	-45.12001800537109	692.7023925781251	-1243.991455078125	-45.02742004394531	689.7360839843751	-1192.554321289062	-60.42108917236328	632.1054077148439	-1221.299072265625	129.7454833984375	498.2928771972657	-1512.214721679688	157.5867004394531	423.9375305175782	-1518.8408203125	174.9321594238281	466.8601074218751	-1539.255004882812	215.8197937011719	303.8244934082032	-1619.5947265625	160.6075134277344	259.5887756347657	-1582.554931640625	203.0751342773438	244.7769317626954	-1605.957397460938	113.8788604736328	70.71105194091805	-1472.697265625	316.8354187011719	50.49763870239267	-1549.624145507812	238.5348815917969	25.37008857727061	-1628.432861328125	105.9246292114258	489.8545227050782	-927.4158935546875	159.7417144775391	518.15771484375	-875.4766845703125	154.6564636230469	471.8927612304688	-892.676513671875	192.1637115478516	320.1587219238282	-813.6259155273438	199.523193359375	241.6389465332032	-810.529296875	166.0018005371094	268.0541687011719	-836.4083862304688	95.06858825683594	65.47621154785162	-966.1416625976562	286.0559997558594	47.41399383544928	-875.0756225585938	199.7424011230469	38.10030364990239	-800.829345703125	405.8867492675781	946.4882812500001	-1213.833251953125	356.3440856933594	806.9762573242189	-1208.969970703125	342.448486328125	1059.81884765625	-1376.0556640625	243.0957946777344	982.6528930664064	-1492.272094726562	190.8098754882812	946.6193847656251	-1509.902465820312	232.5576171875	938.5319213867189	-1540.000732421875	246.1083679199219	878.2313842773439	-1629.675537109375	319.7225341796875	849.3337402343751	-1633.7958984375	304.7820129394531	897.3079223632814	-1628.326904296875	394.9207763671875	948.9207763671876	-1621.442993164062	388.3293762207031	950.2690429687501	-1543.443481445312	334.6227416992188	1063.992431640625	-1067.352661132812	240.8142242431641	989.4100341796876	-951.2034301757811	222.8703460693359	951.6826171875	-900.2788696289061	191.3700561523438	947.1825561523439	-941.5837402343749	260.0103759765625	909.0709228515625	-794.7633056640625	281.4012145996094	984.1934204101562	-809.8763427734374	310.9762878417969	945.4619140625	-798.2191772460936	368.9829406738281	1017.696350097656	-818.3663330078124	373.10546875	1007.122619628906	-895.6715087890624	
139	0.6900000000000001	960.70947265625	36.2071228027345	-1933.546508789062	1063.181274414062	32.89057159423827	86.64934539794922	552.698974609375	1191.89599609375	-1206.632568359375	506.5497741699219	1224.479125976562	-1144.053588867188	511.7611999511719	1219.25732421875	-1279.322387695312	288.3452758789062	1103.222290039062	-1212.594360351562	161.1068572998047	991.5689697265626	-1220.206787109375	140.2440643310547	964.5914916992189	-1241.580932617188	130.3729705810547	959.7105102539064	-1192.556640625	104.0666046142578	910.6483154296876	-1228.44189453125	75.31082916259766	854.6366577148439	-1226.260131835938	41.40844345092773	842.8646240234376	-1241.137451171875	39.62192535400391	840.5677490234376	-1190.52685546875	4.550017833709717	791.7998046875001	-1220.236450195312	-45.32083129882812	690.2551879882814	-1243.945556640625	-45.21102523803711	687.2792358398439	-1192.504638671875	-60.57224655151367	629.6381225585939	-1221.257568359375	129.9910430908203	496.8685302734376	-1512.34423828125	158.1092529296875	422.6389770507814	-1519.2626953125	175.2957305908203	465.7095947265626	-1539.508544921875	216.2772064208984	303.6310119628907	-1619.81298828125	160.9651794433594	259.5200805664064	-1582.749267578125	203.4149627685547	244.6183319091798	-1606.13330078125	113.9243621826172	70.75073242187509	-1472.6611328125	316.8789978027344	50.46712112426767	-1549.603393554688	238.5401458740234	25.3880729675294	-1628.417724609375	106.1360473632812	488.2010498046876	-927.1232299804688	159.8037719726562	516.9053955078125	-875.2473754882812	154.9229125976562	470.5639648437501	-892.296875	192.5296783447266	319.9243469238282	-813.2644653320312	199.7666320800781	241.3899993896485	-810.26123046875	166.2879180908203	267.8979187011719	-836.1153564453125	95.10227966308594	65.50813293457037	-966.1591796875	286.0693054199219	47.40613937377935	-875.0795288085938	199.7440948486328	38.09751129150396	-800.83154296875	406.26123046875	943.3531494140626	-1213.718872070312	356.5567321777344	803.9985351562501	-1208.890991210938	342.9980163574219	1056.818603515625	-1375.8798828125	243.5883331298828	979.8618774414064	-1492.17041015625	191.2479553222656	943.9266967773439	-1509.831176757812	233.00341796875	935.7777709960939	-1539.920532226562	246.5224151611328	875.4829101562501	-1629.5888671875	320.0879516601562	846.4461669921876	-1633.637939453125	305.2332458496094	894.4463500976564	-1628.173217773438	395.446044921875	945.9020385742189	-1621.190307617188	388.7995910644531	947.2248535156251	-1543.186889648438	335.1815490722656	1060.908935546875	-1067.31982421875	241.2540740966797	986.5378417968751	-951.0914916992186	223.2533264160156	948.8836059570312	-900.1435546874999	191.76416015625	944.3784790039064	-941.4417724609374	260.3455810546875	906.3212280273438	-794.5752563476562	281.8267517089844	981.3905639648438	-809.7457275390624	311.3497314453125	942.6528930664062	-798.0551757812499	369.4523010253906	1014.7919921875	-818.2489624023436	373.5419616699219	1004.181518554688	-895.5587768554686	
140	0.6950000000000001	960.7088012695312	36.20795059204114	-1933.547485351562	1063.181274414062	32.89054870605468	86.64950561523438	553.4011840820312	1188.638916015625	-1206.351928710938	507.2423400878906	1221.232177734375	-1143.772705078125	512.5196533203125	1216.052612304688	-1279.050537109375	288.9556579589844	1100.28076171875	-1212.413818359375	161.5225524902344	988.9174194335939	-1220.067504882812	140.6074676513672	962.0061645507814	-1241.446411132812	130.7469024658203	957.1101074218751	-1192.440185546875	104.3244705200195	908.1318359375001	-1228.328369140625	75.4498291015625	852.2012329101564	-1226.146240234375	41.48372650146484	840.5557250976564	-1241.037841796875	39.72076416015625	838.2427978515626	-1190.427368164062	4.569491863250732	789.5331420898439	-1220.135375976562	-45.51660919189453	687.8157958984376	-1243.89306640625	-45.38410186767578	684.8363037109376	-1192.44873046875	-60.71651458740234	627.1810302734376	-1221.200439453125	130.2281188964844	495.4519653320314	-1512.461791992188	158.6231842041016	421.3515625000001	-1519.673828125	175.64990234375	464.5688781738282	-1539.750122070312	216.7217559814453	303.4425354003907	-1620.026000976562	161.3148193359375	259.4532470703126	-1582.939086914062	203.7477569580078	244.4639282226563	-1606.303588867188	113.969596862793	70.79184722900399	-1472.622924804688	316.9218444824219	50.43662643432626	-1549.582641601562	238.5451965332031	25.40618133544932	-1628.402221679688	106.3466186523438	486.5789794921876	-926.8104858398438	159.8767395019531	515.6780395507812	-875.010009765625	155.1883544921875	469.2608337402344	-891.90478515625	192.8943023681641	319.6894531250001	-812.9007568359375	200.0116577148438	241.1408843994141	-809.9959716796875	166.5741271972656	267.7446594238282	-835.8180541992188	95.1368408203125	65.54077911376959	-966.1773681640625	286.0832824707031	47.39785766601568	-875.0836181640625	199.7461547851562	38.09434890747075	-800.8338012695312	406.6373596191406	940.2294311523439	-1213.608642578125	356.7761840820312	801.0466308593751	-1208.817016601562	343.5458679199219	1053.830688476562	-1375.705810546875	244.0794677734375	977.0833129882814	-1492.071411132812	191.68603515625	941.2442016601564	-1509.762451171875	233.4504241943359	933.0350341796876	-1539.842041015625	246.9321594238281	872.7517700195314	-1629.508178710938	320.4506530761719	843.5821533203126	-1633.494140625	305.6793212890625	891.6049194335939	-1628.02685546875	395.962646484375	942.9091796875001	-1620.948364257812	389.2669677734375	944.1988525390626	-1542.94140625	335.7403564453125	1057.837768554688	-1067.285522460938	241.6978759765625	983.6737060546876	-950.9835205078124	223.6414947509766	946.0897216796875	-900.0118408203124	192.1618499755859	941.5822753906251	-941.3050537109374	260.6844482421875	903.5712890625	-794.3938598632812	282.2578125	978.5865478515625	-809.6174926757811	311.7283020019531	939.8411865234375	-797.8967895507811	369.9309387207031	1011.8828125	-818.1314086914061	373.9899597167969	1001.237731933594	-895.4472656249999	
